<svg width="32" height="32" viewBox="0 0 32 32" fill="none" xmlns="http://www.w3.org/2000/svg">
<path d="M21.6504 14.9H13.0004L16.0004 11.85C16.4504 11.4 16.4504 10.7 16.0004 10.25C15.5504 9.80004 14.8504 9.80004 14.4004 10.25L9.55039 15.2C9.10039 15.65 9.10039 16.35 9.55039 16.8L14.4004 21.75C14.6004 21.95 14.9004 22.1 15.2004 22.1C15.5004 22.1 15.7504 22 16.0004 21.8C16.4504 21.35 16.4504 20.65 16.0004 20.2L13.0004 17.15H21.6504C22.2504 17.15 22.7504 16.65 22.7504 16.05C22.8004 15.4 22.3004 14.9 21.6504 14.9Z" fill="#1F2A37"/>
<path d="M15.9996 0.900024C7.64961 0.900024 0.849609 7.65003 0.849609 16C0.849609 24.35 7.64961 31.1 15.9996 31.1C24.3496 31.1 31.1496 24.35 31.1496 16C31.1496 7.65003 24.3496 0.900024 15.9996 0.900024ZM15.9996 28.9C8.89961 28.9 3.09961 23.1 3.09961 16C3.09961 8.90003 8.89961 3.10002 15.9996 3.10002C23.0996 3.10002 28.8996 8.90003 28.8996 16C28.8996 23.1 23.0996 28.9 15.9996 28.9Z" fill="#1F2A37"/>
</svg>
