<svg width="32" height="32" viewBox="0 0 32 32" fill="none" xmlns="http://www.w3.org/2000/svg">
<path d="M17.6 10.25C17.15 9.80004 16.45 9.80004 16 10.25C15.55 10.7 15.55 11.4 16 11.85L19 14.9H10.35C9.75 14.9 9.25 15.4 9.25 16C9.25 16.6 9.75 17.1 10.35 17.1H19L16 20.15C15.55 20.6 15.55 21.3 16 21.75C16.2 21.95 16.5 22.05 16.8 22.05C17.1 22.05 17.4 21.95 17.6 21.7L22.5 16.75C22.95 16.3 22.95 15.6 22.5 15.15L17.6 10.25Z" fill="#1F2A37"/>
<path d="M15.9996 0.900024C7.64961 0.900024 0.849609 7.65003 0.849609 16C0.849609 24.35 7.64961 31.1 15.9996 31.1C24.3496 31.1 31.1496 24.35 31.1496 16C31.1496 7.65003 24.3496 0.900024 15.9996 0.900024ZM15.9996 28.9C8.89961 28.9 3.09961 23.1 3.09961 16C3.09961 8.90003 8.89961 3.10002 15.9996 3.10002C23.0996 3.10002 28.8996 8.90003 28.8996 16C28.8996 23.1 23.0996 28.9 15.9996 28.9Z" fill="#1F2A37"/>
</svg>
