<svg width="14" height="8" viewBox="0 0 14 8" fill="none" xmlns="http://www.w3.org/2000/svg">
<path d="M1.41426 1.03572L1.41424 1.03574L1.41706 1.03849L6.76706 6.26349L7.00107 6.49203L7.234 6.26238L12.584 0.987378L12.584 0.987384L12.5857 0.985721C12.6805 0.890895 12.8194 0.890896 12.9143 0.98572C13.0088 1.08027 13.0091 1.21867 12.9151 1.31348C12.9148 1.31376 12.9145 1.31404 12.9143 1.31432L7.16634 6.96226L7.16633 6.96225L7.16426 6.96432C7.06795 7.06062 7.02309 7.06668 6.99996 7.06668C6.94104 7.06668 6.88999 7.05225 6.82022 6.99912L1.08484 1.36348C0.990841 1.26868 0.991118 1.13027 1.08567 1.03572C1.18049 0.940895 1.31944 0.940895 1.41426 1.03572Z" fill="#637381" stroke="#637381" stroke-width="0.666667"/>
</svg>
