<svg width="175" height="176" viewBox="0 0 175 176" fill="none" xmlns="http://www.w3.org/2000/svg">
<path d="M87.501 87.9999V1C135.55 1 174.501 39.9512 174.501 87.9999C174.501 110.398 165.863 131.933 150.384 148.122L87.501 87.9999Z" fill="#3758F9" stroke="white"/>
<path d="M87.5004 87.9999L150.384 148.122C117.179 182.852 62.1074 184.088 27.378 150.883C21.41 145.177 16.2847 138.651 12.1562 131.5L87.5004 87.9999Z" fill="#D345F8" stroke="white"/>
<path d="M87.5 87.9999L12.1559 131.5C-1.99833 106.984 -3.33977 77.1147 8.55986 51.4288L87.5 87.9999Z" fill="#13C296" stroke="white"/>
<path d="M87.5007 87.9999L8.56055 51.4288C18.9251 29.0565 38.2959 12.1328 61.857 4.86511L87.5007 87.9999Z" fill="#FBBF24" stroke="white"/>
<path d="M87.5001 87.9999L61.8564 4.86516C70.1632 2.30286 78.8071 1 87.5001 1V87.9999Z" fill="#8646F4" stroke="white"/>
</svg>
